:FULLY-SPECIFIED
:FORCE-ALL-JOINTS-BE-3DOF
:DEGREES
340
root 9.36146 16.6896 12.2342 6.04883 10.847 -0.832975
lfemur 6.58946 7.14142 -11.5595
ltibia 42.5977 0 0
lfoot 10.2214 1.92766 0
ltoes -10.8603 0 0
rfemur -33.8997 1.74939 23.5702
rtibia 40.4803 0 0
rfoot -12.1459 1.50333 0
rtoes -12.7142 0 0
lowerback -6.50709 -4.34239 -2.66224
upperback -1.46565 -5.69007 3.21463
thorax 2.71228 -2.87159 4.29155
lowerneck -20.1066 -5.44572 -13.0313
upperneck 20.9826 -7.08354 13.8977
head 11.1217 -2.67245 6.19734
lclavicle 1.01547e-14 -2.70846e-15 0
lhumerus -29.1844 -22.0829 101.037
lradius 25.115 0 0
lwrist 3.34381 0 0
lhand -10.6809 -23.109 0
lfingers 7.12502 0 0
lthumb 15.3279 6.30295 0
rclavicle 1.01547e-14 -2.70846e-15 0
rhumerus -45.8833 5.08528 -81.4591
rradius 31.1373 0 0
rwrist -15.9481 0 0
rhand -28.3598 -24.3974 0
rfingers 7.12502 0 0
rthumb -1.73344 -54.3706 0
341
root 9.34348 16.7328 12.417 6.06109 10.7205 -1.04986
lfemur 4.47468 6.99787 -11.6084
ltibia 45.9997 0 0
lfoot 10.3658 3.75221 0
ltoes -11.3705 0 0
rfemur -32.9123 2.03225 23.9867
rtibia 39.9279 0 0
rfoot -12.6269 1.53983 0
rtoes -12.3547 0 0
lowerback -6.3759 -4.16506 -2.48154
upperback -1.4404 -5.46834 3.22467
thorax 2.62667 -2.75866 4.23441
lowerneck -20.1427 -5.56836 -13.2356
upperneck 20.8344 -7.24843 14.181
head 11.1219 -2.73099 6.30969
lclavicle 1.4292e-14 5.35979e-15 0
lhumerus -29.2725 -20.9539 100.612
lradius 23.8769 0 0
lwrist 3.13826 0 0
lhand -10.468 -22.214 0
lfingers 7.12502 0 0
lthumb 15.5329 7.18206 0
rclavicle 1.4292e-14 5.35979e-15 0
rhumerus -45.4211 5.15896 -81.5194
rradius 31.6819 0 0
rwrist -16.9963 0 0
rhand -28.5746 -23.5623 0
rfingers 7.12502 0 0
rthumb -1.94085 -53.5336 0
342
root 9.3346 16.7541 12.5041 6.06534 10.6398 -1.16652
lfemur 3.50175 6.88172 -11.655
ltibia 47.6111 0 0
lfoot 10.5855 4.75663 0
ltoes -11.9165 0 0
rfemur -32.437 2.20199 24.1917
rtibia 39.6576 0 0
rfoot -12.8916 1.56047 0
rtoes -12.3205 0 0
lowerback -6.31006 -4.0693 -2.3821
upperback -1.41881 -5.3487 3.22988
thorax 2.5908 -2.698 4.20215
lowerneck -20.1753 -5.6378 -13.3621
upperneck 20.7497 -7.34124 14.3582
head 11.1251 -2.76239 6.38181
lclavicle 1.70753e-14 1.07224e-14 0
lhumerus -29.239 -20.3379 100.361
lradius 23.1866 0 0
lwrist 3.04329 0 0
lhand -10.3358 -21.7216 0
lfingers 7.12502 0 0
lthumb 15.6602 7.66448 0
rclavicle 1.70753e-14 1.07224e-14 0
rhumerus -45.1669 5.11312 -81.508
rradius 31.9211 0 0
rwrist -17.5516 0 0
rhand -28.6557 -22.8708 0
rfingers 7.12502 0 0
rthumb -2.01923 -52.8412 0
343
root 9.33885 16.742 12.4496 6.05283 10.6598 -1.13299
lfemur 4.19306 6.82746 -11.6488
ltibia 46.6941 0 0
lfoot 10.9473 4.4229 0
ltoes -12.3893 0 0
rfemur -32.7326 2.16987 24.089
rtibia 39.8481 0 0
rfoot -12.8508 1.56448 0
rtoes -12.7681 0 0
lowerback -6.33867 -4.11091 -2.40954
upperback -1.40728 -5.40225 3.23169
thorax 2.62573 -2.72565 4.21215
lowerneck -20.2078 -5.62312 -13.3561
upperneck 20.7735 -7.32088 14.3584
head 11.1364 -2.75134 6.38526
lclavicle 1.72073e-14 1.11319e-14 0
lhumerus -29.0354 -20.4537 100.396
lradius 23.299 0 0
lwrist 3.08335 0 0
lhand -10.364 -21.8898 0
lfingers 7.12502 0 0
lthumb 15.6331 7.49854 0
rclavicle 1.72073e-14 1.11319e-14 0
rhumerus -45.2325 4.87978 -81.3777
rradius 31.6784 0 0
rwrist -17.2993 0 0
rhand -28.5563 -22.4469 0
rfingers 7.12502 0 0
rthumb -1.9232 -52.418 0
344
root 9.32564 16.7824 12.6256 6.09674 10.5191 -1.26349
lfemur 2.05326 6.89939 -11.7753
ltibia 49.4248 0 0
lfoot 9.95694 5.79653 0
ltoes -11.5286 0 0
rfemur -31.7542 2.36793 24.4217
rtibia 39.1715 0 0
rfoot -13.0318 1.55218 0
rtoes -11.6706 0 0
lowerback -6.25176 -3.93751 -2.28773
upperback -1.42172 -5.1793 3.22
thorax 2.53053 -2.61176 4.16033
lowerneck -20.1262 -5.69244 -13.4364
upperneck 20.6658 -7.41463 14.4417
head 11.1037 -2.79434 6.41143
lclavicle 1.84714e-14 1.29679e-14 0
lhumerus -29.5833 -20.0158 100.18
lradius 22.8321 0 0
lwrist 3.02846 0 0
lhand -10.1891 -21.2183 0
lfingers 7.12502 0 0
lthumb 15.8016 8.15654 0
rclavicle 1.84714e-14 1.29679e-14 0
rhumerus -44.9415 5.51402 -81.738
rradius 32.4547 0 0
rwrist -18.2518 0 0
rhand -28.821 -23.2275 0
rfingers 7.12502 0 0
rthumb -2.17887 -53.1959 0
345
root 9.31156 16.8321 12.8434 6.16792 10.3107 -1.39356
lfemur -0.613179 7.05756 -12.0067
ltibia 52.4508 0 0
lfoot 8.23311 7.39335 0
ltoes -10.0227 0 0
rfemur -30.5228 2.60664 24.7995
rtibia 38.2443 0 0
rfoot -13.1351 1.5145 0
rtoes -10.0773 0 0
lowerback -6.16652 -3.70896 -2.15126
upperback -1.45088 -4.88257 3.19287
thorax 2.4132 -2.46033 4.09072
lowerneck -19.9765 -5.76109 -13.4975
upperneck 20.5408 -7.50744 14.478
head 11.0487 -2.84318 6.41523
lclavicle 1.91933e-14 1.32965e-14 0
lhumerus -30.4557 -19.7755 99.9757
lradius 22.5828 0 0
lwrist 3.05993 0 0
lhand -9.96241 -20.4475 0
lfingers 7.12502 0 0
lthumb 16.0198 8.90973 0
rclavicle 1.91933e-14 1.32965e-14 0
rhumerus -44.6299 6.53511 -82.3103
rradius 33.5341 0 0
rwrist -19.4397 0 0
rhand -29.1583 -24.7701 0
rfingers 7.12502 0 0
rthumb -2.5046 -54.7345 0
346
root 9.29847 16.8815 13.0592 6.24697 10.089 -1.50695
lfemur -3.26948 7.25101 -12.2686
ltibia 55.3042 0 0
lfoot 6.28104 8.95367 0
ltoes -8.28595 0 0
rfemur -29.292 2.84065 25.1584
rtibia 37.2788 0 0
rfoot -13.1709 1.46401 0
rtoes -8.31579 0 0
lowerback -6.08961 -3.47604 -2.02534
upperback -1.48661 -4.57871 3.16055
thorax 2.29403 -2.30529 4.0214
lowerneck -19.801 -5.82122 -13.5411
upperneck 20.4176 -7.58862 14.4829
head 10.9855 -2.88982 6.40571
lclavicle 1.96451e-14 1.27968e-14 0
lhumerus -31.4095 -19.6782 99.8025
lradius 22.4821 0 0
lwrist 3.12483 0 0
lhand -9.72647 -19.69 0
lfingers 7.12502 0 0
lthumb 16.247 9.6489 0
rclavicle 1.96451e-14 1.27968e-14 0
rhumerus -44.3511 7.66985 -82.9478
rradius 34.6696 0 0
rwrist -20.6422 0 0
rhand -29.4989 -26.6221 0
rfingers 7.12502 0 0
rthumb -2.83354 -56.5824 0
